<?xml version="1.0" encoding="utf-8"?>
<!-- Generator: Adobe Illustrator 24.3.0, SVG Export Plug-In . SVG Version: 6.00 Build 0)  -->
<svg version="1.1" id="Layer_1" xmlns="http://www.w3.org/2000/svg" xmlns:xlink="http://www.w3.org/1999/xlink" x="0px" y="0px"
	 viewBox="0 0 1366 768" style="enable-background:new 0 0 1366 768;" xml:space="preserve">
<style type="text/css">
	.st0{fill:#FEFEFD;}
	.st1{fill:#F4CE4E;}
	.st2{fill:#F4CF51;}
	.st3{fill:#F4CF4F;}
	.st4{fill:#FEFDF9;}
	.st5{fill:#FEFDFA;}
	.st6{fill:#FEFDFB;}
</style>
<g>
	<path class="st0" d="M567,484c0-67,0-134,0-201c77.67,0,155.33,0,233,0c0,67,0,134,0,201C722.33,484,644.67,484,567,484z
		 M750.21,379.18c-1.39-32.92-28.38-62.75-65.31-63.49c-27.04-0.54-55.4,16.3-64.87,47.57c-9.25,30.55,4.9,63.65,32.75,78.12
		c26.94,13.99,56.69,6.7,71.62-6.81c-13.54-17.56-27.08-35.12-41.08-53.28C706.07,380.57,728.06,379.88,750.21,379.18z
		 M761.19,378.77c0.05-27.09-18.29-60.97-55.04-72.42c-36.74-11.45-76.54,5.97-93.67,41.35c-16.16,33.38-5.95,74.77,24.79,96.94
		c31.64,22.82,71.2,17.19,93.68-1.61c-0.78-1.02-1.56-2.05-2.33-3.07c-30.21,22.6-68.82,18.79-93.38-3.21
		c-22.35-20.03-31.05-53.37-18.72-82.62c11.57-27.45,40.76-48.48,77.05-44.13c27.17,3.26,60.7,27.15,63.27,68.76
		C758.29,378.77,759.74,378.77,761.19,378.77z M738.5,440.56c17.16-13.63,26.44-30.95,27.11-53.22
		c-22.33,0.72-44.28,1.42-66.67,2.14c12.72,16.48,25.08,32.49,37.43,48.48C736.98,438.75,737.63,439.5,738.5,440.56z M746.62,451.2
		c18.08-11.45,34.75-46.83,30.36-64c-1.63,0-3.25,0-5.02,0c-0.77,24.17-10.68,43.58-29.67,58.44
		C743.79,447.57,745.16,449.33,746.62,451.2z"/>
	<path class="st1" d="M750.21,379.18c-22.16,0.7-44.14,1.39-66.88,2.11c14,18.16,27.55,35.72,41.08,53.28
		c-14.94,13.52-44.68,20.81-71.62,6.81c-27.85-14.47-42-47.57-32.75-78.12c9.46-31.26,37.82-48.11,64.87-47.57
		C721.84,316.43,748.83,346.27,750.21,379.18z M673.81,411.46c-3.18-0.04-5.63,2.24-5.74,5.32c-0.11,3.07,2.54,5.73,5.68,5.72
		c3.01-0.01,5.66-2.6,5.67-5.53C679.43,413.97,676.91,411.49,673.81,411.46z M708.04,429.74c-0.02-3.11-2.46-5.57-5.53-5.56
		c-2.96,0.01-5.53,2.63-5.51,5.64c0.02,3,2.58,5.57,5.58,5.59C705.54,435.44,708.05,432.83,708.04,429.74z M636.32,361.96
		c-3.15-0.02-5.59,2.32-5.65,5.42c-0.06,2.91,2.58,5.59,5.53,5.62c2.96,0.03,5.64-2.58,5.66-5.5
		C641.87,364.43,639.41,361.97,636.32,361.96z M673.54,375.68c0.01-3.06-2.52-5.65-5.48-5.6c-3.02,0.05-5.54,2.58-5.56,5.59
		c-0.02,2.95,2.61,5.6,5.55,5.59C671.13,381.24,673.53,378.81,673.54,375.68z M655.25,419.09c-0.02-2.91-2.79-5.6-5.67-5.5
		c-2.89,0.09-5.57,2.87-5.51,5.72c0.06,2.91,2.8,5.55,5.71,5.5C652.74,424.75,655.27,422.11,655.25,419.09z M685.82,325.43
		c-3.16,0-5.56,2.34-5.57,5.44c-0.01,2.93,2.67,5.61,5.58,5.59c2.92-0.03,5.55-2.66,5.59-5.58
		C691.46,327.92,688.91,325.44,685.82,325.43z M724.6,350.71c-0.01-3.08-2.49-5.65-5.44-5.62c-2.92,0.03-5.55,2.68-5.58,5.61
		c-0.03,2.89,2.61,5.54,5.58,5.6C722.12,356.36,724.6,353.81,724.6,350.71z M691.29,364.61c3.1,0.03,5.6-2.33,5.69-5.37
		c0.08-2.92-2.46-5.55-5.48-5.66c-2.96-0.11-5.51,2.41-5.54,5.49C685.92,362.37,688.05,364.58,691.29,364.61z M647.35,398.04
		c3.06,0.03,5.58-2.39,5.64-5.41c0.06-2.91-2.56-5.59-5.5-5.62c-3.04-0.03-5.51,2.42-5.53,5.49
		C641.94,395.7,644.18,398.01,647.35,398.04z M655.19,353.53c3.01,0,5.33-2.34,5.38-5.4c0.05-3.15-2.34-5.63-5.4-5.63
		c-3.08,0.01-5.61,2.5-5.6,5.52C649.58,351.05,652.11,353.53,655.19,353.53z"/>
	<path class="st2" d="M761.19,378.77c-1.45,0-2.9,0-4.35,0c-2.58-41.61-36.1-65.51-63.27-68.76c-36.29-4.35-65.48,16.68-77.05,44.13
		c-12.33,29.24-3.63,62.58,18.72,82.62c24.55,22.01,63.16,25.82,93.38,3.21c0.77,1.02,1.55,2.04,2.33,3.07
		c-22.48,18.8-62.04,24.43-93.68,1.61c-30.73-22.17-40.95-63.56-24.79-96.94c17.13-35.38,56.93-52.8,93.67-41.35
		C742.9,317.81,761.24,351.69,761.19,378.77z"/>
	<path class="st3" d="M738.5,440.56c-0.87-1.06-1.52-1.82-2.13-2.6c-12.36-16-24.71-32-37.43-48.48
		c22.39-0.72,44.34-1.42,66.67-2.14C764.94,409.61,755.66,426.93,738.5,440.56z M726.6,395.4c-3.1,0.04-5.62,2.57-5.52,5.54
		c0.11,3.05,2.67,5.54,5.62,5.49c3.09-0.06,5.42-2.48,5.4-5.62C732.08,397.55,729.85,395.36,726.6,395.4z M740.57,411.47
		c-3.12,0.02-5.63,2.5-5.56,5.49c0.07,3.01,2.68,5.58,5.62,5.52c3.11-0.07,5.5-2.5,5.49-5.58
		C746.1,413.73,743.77,411.45,740.57,411.47z M749.23,403.6c3.23-0.01,5.43-2.27,5.39-5.52c-0.04-3.08-2.5-5.58-5.49-5.57
		c-2.88,0.02-5.6,2.79-5.53,5.64C743.69,401.27,746.11,403.62,749.23,403.6z"/>
	<path class="st2" d="M746.62,451.2c-1.46-1.87-2.82-3.63-4.33-5.56c18.99-14.86,28.9-34.28,29.67-58.44c1.77,0,3.39,0,5.02,0
		C781.37,404.37,764.7,439.75,746.62,451.2z"/>
	<path class="st4" d="M673.81,411.46c3.1,0.04,5.62,2.51,5.61,5.51c-0.01,2.93-2.66,5.52-5.67,5.53c-3.15,0.01-5.79-2.65-5.68-5.72
		C668.17,413.7,670.63,411.42,673.81,411.46z"/>
	<path class="st5" d="M708.04,429.74c0.02,3.08-2.49,5.69-5.46,5.67c-3-0.02-5.56-2.59-5.58-5.59c-0.02-3.01,2.55-5.64,5.51-5.64
		C705.58,424.18,708.02,426.64,708.04,429.74z"/>
	<path class="st5" d="M636.32,361.96c3.1,0.02,5.56,2.48,5.54,5.53c-0.02,2.93-2.7,5.53-5.66,5.5c-2.96-0.03-5.59-2.71-5.53-5.62
		C630.73,364.28,633.17,361.94,636.32,361.96z"/>
	<path class="st5" d="M673.54,375.68c-0.01,3.13-2.41,5.56-5.49,5.57c-2.95,0.01-5.58-2.64-5.55-5.59c0.02-3.01,2.54-5.54,5.56-5.59
		C671.02,370.03,673.55,372.62,673.54,375.68z"/>
	<path class="st6" d="M655.25,419.09c0.02,3.02-2.51,5.66-5.46,5.71c-2.91,0.05-5.65-2.59-5.71-5.5c-0.06-2.85,2.61-5.63,5.51-5.72
		C652.46,413.49,655.23,416.18,655.25,419.09z"/>
	<path class="st5" d="M685.82,325.43c3.09,0,5.65,2.48,5.61,5.44c-0.04,2.93-2.67,5.56-5.59,5.58c-2.91,0.03-5.59-2.66-5.58-5.59
		C680.26,327.78,682.66,325.43,685.82,325.43z"/>
	<path class="st5" d="M724.6,350.71c0.01,3.1-2.48,5.65-5.45,5.59c-2.96-0.06-5.6-2.71-5.58-5.6c0.03-2.93,2.66-5.58,5.58-5.61
		C722.1,345.06,724.59,347.63,724.6,350.71z"/>
	<path class="st5" d="M691.29,364.61c-3.25-0.03-5.38-2.24-5.34-5.54c0.03-3.07,2.59-5.6,5.54-5.49c3.02,0.12,5.57,2.74,5.48,5.66
		C696.89,362.27,694.39,364.64,691.29,364.61z"/>
	<path class="st6" d="M647.35,398.04c-3.17-0.03-5.41-2.34-5.39-5.55c0.02-3.06,2.49-5.52,5.53-5.49c2.94,0.03,5.56,2.71,5.5,5.62
		C652.92,395.66,650.41,398.07,647.35,398.04z"/>
	<path class="st6" d="M655.19,353.53c-3.08,0-5.61-2.47-5.62-5.51c-0.01-3.02,2.52-5.51,5.6-5.52c3.07-0.01,5.45,2.48,5.4,5.63
		C660.52,351.19,658.2,353.52,655.19,353.53z"/>
	<path class="st5" d="M726.6,395.4c3.25-0.04,5.48,2.15,5.5,5.41c0.03,3.14-2.3,5.56-5.4,5.62c-2.95,0.05-5.51-2.45-5.62-5.49
		C720.98,397.97,723.5,395.44,726.6,395.4z"/>
	<path class="st6" d="M740.57,411.47c3.21-0.02,5.54,2.26,5.54,5.43c0.01,3.09-2.38,5.52-5.49,5.58c-2.93,0.06-5.55-2.51-5.62-5.52
		C734.94,413.97,737.45,411.49,740.57,411.47z"/>
	<path class="st6" d="M749.23,403.6c-3.12,0.01-5.54-2.33-5.62-5.45c-0.08-2.85,2.64-5.62,5.53-5.64c2.98-0.02,5.45,2.49,5.49,5.57
		C754.66,401.33,752.46,403.59,749.23,403.6z"/>
</g>
</svg>
